<svg width="18" height="19" viewBox="0 0 18 19" fill="none" xmlns="http://www.w3.org/2000/svg">
<path d="M0 15.0001C0 13.8955 0.895431 13.0001 2 13.0001H16C17.1046 13.0001 18 13.8955 18 15.0001V17.0001C18 18.1047 17.1046 19.0001 16 19.0001H2C0.89543 19.0001 0 18.1047 0 17.0001V15.0001Z" fill="black"/>
<path d="M2 14.0001C2 12.8955 2.89543 12.0001 4 12.0001H14C15.1046 12.0001 16 12.8955 16 14.0001C16 15.1047 15.1046 16.0001 14 16.0001H4C2.89543 16.0001 2 15.1047 2 14.0001Z" fill="black"/>
<path d="M9.98141 4.64785C10.3093 3.73779 11.3129 3.26588 12.223 3.5938C13.133 3.92173 13.605 4.92531 13.277 5.83537L10.4259 13.7477C10.098 14.6578 9.09444 15.1297 8.18438 14.8018C7.27432 14.4739 6.8024 13.4703 7.13033 12.5602L9.98141 4.64785Z" fill="black"/>
<path d="M14.9622 5.07547C14.3752 6.70452 12.5787 7.54927 10.9497 6.96227C9.32062 6.37527 8.47588 4.57881 9.06288 2.94976C9.64988 1.32071 11.4463 0.475968 13.0754 1.06297C14.7044 1.64997 15.5492 3.44643 14.9622 5.07547Z" fill="black"/>
</svg>
