<svg width="18" height="20" viewBox="0 0 18 20" fill="none" xmlns="http://www.w3.org/2000/svg">
<path fill-rule="evenodd" clip-rule="evenodd" d="M10.234 0.46757C9.50943 -0.10057 8.49057 -0.100569 7.76596 0.46757L0.76596 5.95604C0.28243 6.33516 0 6.9155 0 7.52994V18C0 19.1046 0.89543 20 2 20H5C6.10457 20 7 19.1046 7 18V16C7 14.8954 7.89543 14 9 14V14C10.1046 14 11 14.8954 11 16V18C11 19.1046 11.8954 20 13 20H16C17.1046 20 18 19.1046 18 18V7.52993C18 6.9155 17.7176 6.33516 17.234 5.95604L10.234 0.46757Z" fill="black"/>
</svg>
