<svg width="19" height="19" viewBox="0 0 19 19" fill="none" xmlns="http://www.w3.org/2000/svg">
<path d="M0 12C0 10.8955 0.895431 10 2 10H7C8.10457 10 9 10.8955 9 12V17C9 18.1046 8.10457 19 7 19H2C0.89543 19 0 18.1046 0 17V12Z" fill="black"/>
<path d="M10 14.5C10 12.0148 12.0147 10 14.5 10C16.9853 10 19 12.0148 19 14.5C19 16.9853 16.9853 19 14.5 19C12.0147 19 10 16.9853 10 14.5Z" fill="black"/>
<path d="M14.0528 0.894466C14.237 0.525942 14.763 0.525943 14.9472 0.894468L18.6382 8.27643C18.8044 8.60888 18.5627 9.00004 18.191 9.00004H10.809C10.4373 9.00004 10.1956 8.60888 10.3618 8.27643L14.0528 0.894466Z" fill="black"/>
<path d="M4.07318 0.699523C4.26809 0.380107 4.73191 0.380107 4.92682 0.699523L6.01634 2.48508C6.08252 2.59354 6.1875 2.67273 6.30995 2.70657L8.29757 3.25596C8.64069 3.3508 8.7776 3.76365 8.55915 4.04472L7.23481 5.74867C7.16087 5.8438 7.12378 5.96244 7.13034 6.08275L7.24887 8.25502C7.26888 8.62182 6.89976 8.88426 6.55988 8.74487L4.68973 7.97785C4.56816 7.92799 4.43184 7.92799 4.31027 7.97785L2.44012 8.74487C2.10024 8.88426 1.73112 8.62183 1.75113 8.25502L1.86966 6.08275C1.87622 5.96244 1.83913 5.8438 1.76519 5.74867L0.440854 4.04472C0.222401 3.76365 0.359315 3.3508 0.702431 3.25596L2.69005 2.70657C2.8125 2.67273 2.91748 2.59353 2.98366 2.48508L4.07318 0.699523Z" fill="black"/>
</svg>
