<svg width="28" height="32" viewBox="-3 -2 25 25" fill="none" xmlns="http://www.w3.org/2000/svg">
<path d="M17.0625 14.4375C16.4614 14.4375 15.75 13.7261 15.75 13.125V6.5625C15.75 2.94427 12.8057 0 9.1875 0C5.56927 0 2.625 2.94427 2.625 6.5625V13.125C2.625 13.7133 1.90083 14.4375 1.3125 14.4375C0.587016 14.4375 0 15.0245 0 15.75C0 16.4755 0.587016 17.0625 1.3125 17.0625H17.0625C17.788 17.0625 18.375 16.4755 18.375 15.75C18.375 15.0245 17.788 14.4375 17.0625 14.4375Z" fill="#7B7B7B"/>
<path d="M9.1875 21C10.6372 21 11.8125 19.8247 11.8125 18.375H6.5625C6.5625 19.8247 7.73784 21 9.1875 21Z" fill="#7B7B7B"/>
</svg>
