<svg width="28" height="32" viewBox="-3 -2 25 25" fill="none" xmlns="http://www.w3.org/2000/svg">
<path d="M9.40002 21.9999C10.8517 21.9999 12.0286 20.823 12.0286 19.3713H6.77145C6.77145 20.823 7.9484 21.9999 9.40002 21.9999Z" fill="#7B7B7B"/>
<path d="M10.603 1.08203C10.213 1.00957 9.81092 0.97168 9.4002 0.97168C5.77704 0.97168 2.82877 3.91995 2.82877 7.54311V14.1145C2.82877 14.7037 2.10361 15.4288 1.51448 15.4288C0.78801 15.4288 0.200195 16.0166 0.200195 16.7431C0.200195 17.4696 0.78801 18.0574 1.51448 18.0574H17.2859C18.0124 18.0574 18.6002 17.4696 18.6002 16.7431C18.6002 16.0166 18.0124 15.4288 17.2859 15.4288C16.684 15.4288 15.9716 14.7165 15.9716 14.1145V7.54311C15.9716 7.42636 15.9686 7.31031 15.9625 7.19503C15.4439 7.41885 14.8722 7.54286 14.2714 7.54286C11.9124 7.54286 10 5.63048 10 3.27143C10 2.47115 10.2201 1.72228 10.603 1.08203Z" fill="#7B7B7B"/>
<path d="M17.25 3.25C17.25 4.90685 15.9069 6.25 14.25 6.25C12.5931 6.25 11.25 4.90685 11.25 3.25C11.25 1.59315 12.5931 0.25 14.25 0.25C15.9069 0.25 17.25 1.59315 17.25 3.25Z" fill="#E77474"/>
</svg>
