<svg width="26" height="24" viewBox="-5 0 36 24" fill="none" xmlns="http://www.w3.org/2000/svg">
<path d="M0 16.5C0 14.8431 1.34315 13.5 3 13.5H6.08579C6.351 13.5 6.60536 13.3946 6.79289 13.2071L11.2929 8.70711C11.9229 8.07714 13 8.52331 13 9.41421V11.0858C13 11.9767 14.0771 12.4229 14.7071 11.7929L17.7929 8.70711C18.4229 8.07714 19.5 8.52331 19.5 9.41421V11.0858C19.5 11.9767 20.5771 12.4229 21.2071 11.7929L24.2929 8.70711C24.9229 8.07714 26 8.52331 26 9.41421V21C26 22.6569 24.6569 24 23 24H3C1.34315 24 0 22.6569 0 21V16.5Z" fill="#7B7B7B"/>
<path d="M2.89505 1.88906C2.95393 0.829226 3.83051 0 4.89197 0H5.10803C6.16949 0 7.04607 0.829227 7.10495 1.88906L7.88273 15.8891C7.94641 17.0355 7.03398 18 5.88581 18H4.11419C2.96602 18 2.05359 17.0355 2.11727 15.8891L2.89505 1.88906Z" fill="#7B7B7B"/>
</svg>
