<svg width="23" height="21" viewBox="0 0 23 21" fill="none" xmlns="http://www.w3.org/2000/svg">
<path d="M11.4002 12.4125C12.1999 12.9604 12.1999 14.0395 11.4002 14.5875L2.45608 20.716C1.45068 21.4048 0 20.7625 0 19.6284V7.37156C0 6.2375 1.45068 5.59516 2.45608 6.28405L11.4002 12.4125Z" fill="#7B7B7B"/>
<path d="M18.4002 12.4125C19.1999 12.9605 19.1999 14.0396 18.4002 14.5875L9.45608 20.7159C8.4507 21.4049 7 20.7625 7 19.6284V7.37157C7 6.23751 8.4507 5.59516 9.45608 6.28405L18.4002 12.4125Z" fill="#7B7B7B"/>
<circle cx="16.5" cy="6.5" r="6.5" fill="#575757"/>
<path d="M13.43 4.63636V9H12.2453V5.72727H12.2197L11.2652 6.2983V5.29261L12.339 4.63636H13.43ZM16.2265 9.11932C15.8302 9.1179 15.4878 9.02628 15.1995 8.84446C14.9111 8.66264 14.6888 8.40057 14.5326 8.05824C14.3763 7.71591 14.2989 7.3054 14.3003 6.8267C14.3018 6.34659 14.3799 5.93892 14.5347 5.60369C14.691 5.26847 14.9126 5.01349 15.1995 4.83878C15.4878 4.66406 15.8302 4.5767 16.2265 4.5767C16.6228 4.5767 16.9651 4.66477 17.2535 4.84091C17.5418 5.01562 17.7641 5.2706 17.9204 5.60582C18.0766 5.94105 18.154 6.34801 18.1526 6.8267C18.1526 7.30824 18.0745 7.72017 17.9182 8.0625C17.762 8.40483 17.5397 8.6669 17.2513 8.84872C16.9644 9.02912 16.6228 9.11932 16.2265 9.11932ZM16.2265 8.15625C16.431 8.15625 16.5986 8.04972 16.7293 7.83665C16.8614 7.62216 16.9268 7.28551 16.9253 6.8267C16.9253 6.52699 16.8955 6.28196 16.8358 6.09162C16.7762 5.90128 16.6938 5.76065 16.5887 5.66974C16.4836 5.57741 16.3628 5.53125 16.2265 5.53125C16.0219 5.53125 15.855 5.63494 15.7258 5.84233C15.5965 6.04972 15.5305 6.37784 15.5276 6.8267C15.5262 7.1321 15.5553 7.38352 15.615 7.58097C15.6746 7.77699 15.757 7.92188 15.8621 8.01562C15.9687 8.10938 16.0901 8.15625 16.2265 8.15625ZM19.7314 5.72727L20.2087 6.74148L20.7116 5.72727H21.8792L21.0013 7.36364L21.9218 9H20.7627L20.2087 7.96023L19.6718 9H18.4956L19.4246 7.36364L18.5553 5.72727H19.7314Z" fill="white"/>
</svg>
