<svg width="23" height="21" viewBox="0 0 23 21" fill="none" xmlns="http://www.w3.org/2000/svg">
<path d="M11.4002 12.4125C12.1999 12.9604 12.1999 14.0395 11.4002 14.5875L2.45608 20.716C1.45068 21.4048 0 20.7625 0 19.6284V7.37156C0 6.2375 1.45068 5.59516 2.45608 6.28405L11.4002 12.4125Z" fill="#7B7B7B"/>
<path d="M18.4002 12.4125C19.1999 12.9605 19.1999 14.0396 18.4002 14.5875L9.45608 20.7159C8.4507 21.4049 7 20.7625 7 19.6284V7.37157C7 6.23751 8.4507 5.59516 9.45608 6.28405L18.4002 12.4125Z" fill="#7B7B7B"/>
<circle cx="16.5" cy="6.5" r="6.5" fill="#575757"/>
<path d="M15.4749 3.90909V9H14.0928V5.18182H14.063L12.9494 5.84801V4.67472L14.2022 3.90909H15.4749ZM17.7134 5.18182L18.2702 6.36506L18.8568 5.18182H20.2191L19.1949 7.09091L20.2688 9H18.9165L18.2702 7.78693L17.6438 9H16.2716L17.3554 7.09091L16.3412 5.18182H17.7134Z" fill="white"/>
</svg>
