<svg width="23" height="21" viewBox="0 0 23 21" fill="none" xmlns="http://www.w3.org/2000/svg">
<path d="M11.4002 12.4125C12.1999 12.9604 12.1999 14.0395 11.4002 14.5875L2.45608 20.716C1.45068 21.4048 0 20.7625 0 19.6284V7.37156C0 6.2375 1.45068 5.59516 2.45608 6.28405L11.4002 12.4125Z" fill="#7B7B7B"/>
<path d="M18.4002 12.4125C19.1999 12.9605 19.1999 14.0396 18.4002 14.5875L9.45608 20.7159C8.4507 21.4049 7 20.7625 7 19.6284V7.37157C7 6.23751 8.4507 5.59516 9.45608 6.28405L18.4002 12.4125Z" fill="#7B7B7B"/>
<circle cx="16.5" cy="6.5" r="6.5" fill="#575757"/>
<path d="M14.4467 9.0696C14.0556 9.0696 13.7085 9.00083 13.4052 8.86328C13.1036 8.72408 12.8658 8.53267 12.6918 8.28906C12.5194 8.04545 12.4316 7.76539 12.4283 7.44886H13.7706C13.7756 7.62453 13.8435 7.76456 13.9744 7.86896C14.107 7.97337 14.2644 8.02557 14.4467 8.02557C14.5876 8.02557 14.7119 7.99574 14.8196 7.93608C14.9273 7.87476 15.0118 7.78859 15.0732 7.67756C15.1345 7.56652 15.1643 7.43726 15.1626 7.28977C15.1643 7.14062 15.1345 7.01136 15.0732 6.90199C15.0118 6.79096 14.9273 6.70561 14.8196 6.64595C14.7119 6.58464 14.5876 6.55398 14.4467 6.55398C14.3009 6.55398 14.1658 6.58961 14.0415 6.66087C13.9189 6.73047 13.8286 6.82741 13.7706 6.9517L12.5575 6.71307L12.7564 3.90909H16.1768V5.01278H13.8899L13.7905 6.13636H13.8203C13.8999 5.98224 14.0374 5.85464 14.233 5.75355C14.4285 5.6508 14.6555 5.59943 14.9141 5.59943C15.2173 5.59943 15.4875 5.66986 15.7244 5.81072C15.9631 5.95159 16.1512 6.14631 16.2887 6.39489C16.4279 6.64181 16.4967 6.92685 16.495 7.25C16.4967 7.60464 16.4122 7.91951 16.2415 8.1946C16.0724 8.46804 15.8346 8.68265 15.5281 8.83842C15.2215 8.99254 14.861 9.0696 14.4467 9.0696ZM18.2842 5.18182L18.841 6.36506L19.4276 5.18182H20.7899L19.7657 7.09091L20.8396 9H19.4873L18.841 7.78693L18.2146 9H16.8424L17.9262 7.09091L16.912 5.18182H18.2842Z" fill="white"/>
</svg>
