<svg width="23" height="21" viewBox="0 0 23 21" fill="none" xmlns="http://www.w3.org/2000/svg">
<path d="M11.4002 12.4125C12.1999 12.9604 12.1999 14.0395 11.4002 14.5875L2.45608 20.716C1.45068 21.4048 0 20.7625 0 19.6284V7.37156C0 6.2375 1.45068 5.59516 2.45608 6.28405L11.4002 12.4125Z" fill="#7B7B7B"/>
<path d="M18.4002 12.4125C19.1999 12.9605 19.1999 14.0396 18.4002 14.5875L9.45608 20.7159C8.4507 21.4049 7 20.7625 7 19.6284V7.37157C7 6.23751 8.4507 5.59516 9.45608 6.28405L18.4002 12.4125Z" fill="#7B7B7B"/>
<circle cx="16.5" cy="6.5" r="6.5" fill="#575757"/>
<path d="M12.487 9V8.00568L14.3861 6.43466C14.5121 6.33026 14.6198 6.23248 14.7093 6.14134C14.8004 6.04853 14.87 5.95324 14.9181 5.85547C14.9678 5.75769 14.9927 5.64915 14.9927 5.52983C14.9927 5.39891 14.9645 5.28705 14.9082 5.19425C14.8535 5.10144 14.7772 5.03018 14.6795 4.98047C14.5817 4.9291 14.469 4.90341 14.3414 4.90341C14.2138 4.90341 14.1011 4.9291 14.0033 4.98047C13.9072 5.03184 13.8326 5.10724 13.7796 5.20668C13.7266 5.30611 13.7001 5.42708 13.7001 5.5696H12.3876C12.3876 5.21165 12.4679 4.90341 12.6287 4.64489C12.7894 4.38636 13.0165 4.1875 13.3098 4.0483C13.6031 3.90909 13.947 3.83949 14.3414 3.83949C14.7491 3.83949 15.1021 3.90495 15.4003 4.03587C15.7003 4.16513 15.9315 4.34742 16.0939 4.58274C16.2579 4.81806 16.34 5.09399 16.34 5.41051C16.34 5.60606 16.2994 5.80078 16.2182 5.99467C16.137 6.18691 15.9911 6.39986 15.7807 6.63352C15.5702 6.86719 15.2711 7.1456 14.8833 7.46875L14.406 7.86648V7.89631H16.3947V9H12.487ZM18.2056 5.18182L18.7624 6.36506L19.349 5.18182H20.7112L19.6871 7.09091L20.761 9H19.4087L18.7624 7.78693L18.136 9H16.7638L17.8476 7.09091L16.8334 5.18182H18.2056Z" fill="white"/>
</svg>
