<svg width="23" height="23" viewBox="-3.5 -3 30 30" fill="none" xmlns="http://www.w3.org/2000/svg">
<path fill-rule="evenodd" clip-rule="evenodd" d="M11.5 23C17.8513 23 23 17.8511 23 11.5C23 5.14893 17.8513 0 11.5 0C5.14868 0 0 5.14893 0 11.5C0 17.8511 5.14868 23 11.5 23ZM10.4746 16.5605C10.4746 16.8535 10.6211 17 10.9141 17H12.0859C12.3789 17 12.5254 16.8535 12.5254 16.5605V9.74902C12.5254 9.45605 12.3789 9.30957 12.0859 9.30957H10.9141C10.6211 9.30957 10.4746 9.45605 10.4746 9.74902V16.5605ZM10.4746 7.74219C10.4746 8.03516 10.6211 8.18164 10.9141 8.18164H12.0859C12.3789 8.18164 12.5254 8.03516 12.5254 7.74219V6.80469C12.5254 6.51172 12.3789 6.36523 12.0859 6.36523H10.9141C10.6211 6.36523 10.4746 6.51172 10.4746 6.80469V7.74219Z" fill="#7B7B7B"/>
</svg>
