<svg width="20" height="20" viewBox="-5 -4 30 30" fill="none" xmlns="http://www.w3.org/2000/svg">
<path d="M0 2C0 0.895431 0.895431 0 2 0H7.5C8.60457 0 9.5 0.895431 9.5 2V18C9.5 19.1046 8.60457 20 7.5 20H2C0.89543 20 0 19.1046 0 18V2Z" fill="#7B7B7B"/>
<path d="M11 2C11 0.89543 11.8954 0 13 0H18C19.1046 0 20 0.895431 20 2V11C20 12.1046 19.1046 13 18 13H13C11.8954 13 11 12.1046 11 11V2Z" fill="#7B7B7B"/>
<path d="M11 17C11 15.8954 11.8954 15 13 15H18C19.1046 15 20 15.8954 20 17V18C20 19.1046 19.1046 20 18 20H13C11.8954 20 11 19.1046 11 18V17Z" fill="#7B7B7B"/>
</svg>
