<svg width="31" height="20" viewBox="0 0 31 20" fill="none" xmlns="http://www.w3.org/2000/svg">
<path d="M14.9 5H29C29.5523 5 30 4.55228 30 4C30 3.44772 29.5523 3 29 3H14.9C14.9656 3.32311 15 3.65753 15 4C15 4.34247 14.9656 4.67689 14.9 5Z" fill="#7B7B7B"/>
<path d="M5.10002 5C5.03443 4.67689 5 4.34247 5 4C5 3.65753 5.03443 3.32311 5.10002 3H2C1.44772 3 1 3.44772 1 4C1 4.55228 1.44772 5 2 5H5.10002Z" fill="#7B7B7B"/>
<path d="M10 7C11.6569 7 13 5.65685 13 4C13 2.34315 11.6569 1 10 1C8.34315 1 7 2.34315 7 4C7 5.65685 8.34315 7 10 7Z" fill="#7B7B7B"/>
<path d="M25.9 17H28.9999C29.5522 17 29.9999 16.5523 29.9999 16C29.9999 15.4477 29.5522 15 28.9999 15H25.9C25.9656 15.3231 26 15.6575 26 16C26 16.3425 25.9656 16.6769 25.9 17Z" fill="#7B7B7B"/>
<path d="M16.1 17C16.0344 16.6769 16 16.3425 16 16C16 15.6575 16.0344 15.3231 16.1 15H2C1.44772 15 1 15.4477 1 16C1 16.5523 1.44772 17 2 17H16.1Z" fill="#7B7B7B"/>
<path d="M21 19C22.6569 19 24 17.6569 24 16C24 14.3431 22.6569 13 21 13C19.3431 13 18 14.3431 18 16C18 17.6569 19.3431 19 21 19Z" fill="#7B7B7B"/>
<path d="M14.9 5H29C29.5523 5 30 4.55228 30 4C30 3.44772 29.5523 3 29 3H14.9C14.9656 3.32311 15 3.65753 15 4C15 4.34247 14.9656 4.67689 14.9 5Z" stroke="#7B7B7B"/>
<path d="M5.10002 5C5.03443 4.67689 5 4.34247 5 4C5 3.65753 5.03443 3.32311 5.10002 3H2C1.44772 3 1 3.44772 1 4C1 4.55228 1.44772 5 2 5H5.10002Z" stroke="#7B7B7B"/>
<path d="M10 7C11.6569 7 13 5.65685 13 4C13 2.34315 11.6569 1 10 1C8.34315 1 7 2.34315 7 4C7 5.65685 8.34315 7 10 7Z" stroke="#7B7B7B"/>
<path d="M25.9 17H28.9999C29.5522 17 29.9999 16.5523 29.9999 16C29.9999 15.4477 29.5522 15 28.9999 15H25.9C25.9656 15.3231 26 15.6575 26 16C26 16.3425 25.9656 16.6769 25.9 17Z" stroke="#7B7B7B"/>
<path d="M16.1 17C16.0344 16.6769 16 16.3425 16 16C16 15.6575 16.0344 15.3231 16.1 15H2C1.44772 15 1 15.4477 1 16C1 16.5523 1.44772 17 2 17H16.1Z" stroke="#7B7B7B"/>
<path d="M21 19C22.6569 19 24 17.6569 24 16C24 14.3431 22.6569 13 21 13C19.3431 13 18 14.3431 18 16C18 17.6569 19.3431 19 21 19Z" stroke="#7B7B7B"/>
</svg>
