<svg width="30" height="35" viewBox="0 0 30 35" fill="none" xmlns="http://www.w3.org/2000/svg">
<path d="M6 16.1106V22.677C6 23.0831 6.24554 23.4488 6.62137 23.6026L12.6214 26.0571C13.2793 26.3262 14 25.8424 14 25.1316V18.5652C14 18.1591 13.7545 17.7934 13.3786 17.6396L7.37863 15.1851C6.72075 14.9159 6 15.3998 6 16.1106Z" fill="#7B7B7B"/>
<path d="M24 16.1106V22.677C24 23.0831 23.7545 23.4488 23.3786 23.6026L17.3786 26.0571C16.7207 26.3262 16 25.8424 16 25.1316V18.5652C16 18.1591 16.2455 17.7934 16.6214 17.6396L22.6214 15.1851C23.2793 14.9159 24 15.3998 24 16.1106Z" fill="#7B7B7B"/>
<path d="M15.4061 7.8016L21.9439 10.7073C22.7357 11.0592 22.7357 12.183 21.9439 12.5349L15.4061 15.4406C15.1476 15.5555 14.8524 15.5555 14.5939 15.4406L8.05608 12.5349C7.26426 12.183 7.26426 11.0592 8.05608 10.7073L14.5939 7.8016C14.8524 7.68668 15.1476 7.68668 15.4061 7.8016Z" fill="#7B7B7B"/>
<path d="M10.0936 3.29236C10.4721 3.22235 10.7845 3.58831 10.6558 3.95109L8.84934 9.04662C8.72073 9.4094 8.24763 9.49691 7.99776 9.20414L4.48815 5.09189C4.23828 4.79912 4.39905 4.34565 4.77753 4.27565L10.0936 3.29236Z" fill="#7B7B7B"/>
<path fill-rule="evenodd" clip-rule="evenodd" d="M0 17.6206C0 11.6261 3.51639 6.45281 8.59898 4.05105L9.93096 5.64596C5.26978 7.62157 2 12.2392 2 17.6206C2 24.8003 7.8203 30.6206 15 30.6206C16.3881 30.6206 17.7255 30.403 18.9798 30.0001L18.0878 32.3025C17.0913 32.511 16.0585 32.6206 15 32.6206C6.71573 32.6206 0 25.9049 0 17.6206ZM22.9133 30.3658C27.1679 27.7186 30 23.0004 30 17.6206C30 9.33633 23.2843 2.62061 15 2.62061C14.2804 2.62061 13.5726 2.67128 12.88 2.76926L12.0806 4.9497C13.0191 4.73437 13.9962 4.62061 15 4.62061C22.1797 4.62061 28 10.4409 28 17.6206C28 22.3708 25.4522 26.526 21.6486 28.7942L22.9133 30.3658Z" fill="#7B7B7B"/>
<path d="M21.2444 30.8976C20.8648 30.9607 20.5591 30.5891 20.6943 30.2288L22.5933 25.167C22.7285 24.8066 23.2031 24.7277 23.4476 25.025L26.8818 29.2005C27.1263 29.4977 26.9573 29.9482 26.5776 30.0113L21.2444 30.8976Z" fill="#7B7B7B"/>
</svg>
