<svg width="31" height="31" viewBox="-2 -5 35 35" fill="none" xmlns="http://www.w3.org/2000/svg">
<path d="M12.8929 1.5439C10.601 2.54851 8.99989 4.83728 8.99989 7.5C8.99989 8.01204 9.05909 8.51025 9.17103 8.98816C6.83933 8.8197 4.99999 6.87465 4.99999 4.5C4.99999 2.01472 7.01471 0 9.49999 0C10.8538 0 12.068 0.597833 12.8929 1.5439Z" fill="#7B7B7B"/>
<path d="M21.8287 8.98817C21.9407 8.51026 21.9999 8.01204 21.9999 7.5C21.9999 4.83734 20.3989 2.54861 18.107 1.54397C18.9319 0.59786 20.1461 0 21.5 0C23.9853 0 26 2.01472 26 4.5C26 6.87472 24.1605 8.81982 21.8287 8.98817Z" fill="#7B7B7B"/>
<path d="M9.49943 10.0033C6.66979 10.0924 3.80313 11.9735 0.927097 15.6466C-0.503812 17.474 0.927767 20 3.2488 20H4.28818C4.32468 19.5341 4.48861 19.0627 4.80422 18.6257C6.9324 15.6793 9.05703 13.5867 11.17 12.348C10.4514 11.7057 9.87652 10.9061 9.49943 10.0033Z" fill="#7B7B7B"/>
<path d="M26.893 20C26.8575 19.5614 26.7088 19.1173 26.4262 18.7002C24.3157 15.5858 22.1702 13.4161 19.9991 12.1912C20.6389 11.5774 21.1534 10.8341 21.5003 10.0033C24.4882 9.90964 27.4348 11.814 30.3076 15.7164C31.6585 17.5515 30.2184 20 27.9397 20H26.893Z" fill="#7B7B7B"/>
<path d="M6.9271 18.6466C12.8403 11.0946 18.7139 11.1179 24.3076 18.7164C25.6585 20.5515 24.2184 23 21.9397 23L9.2488 23C6.92777 23 5.49619 20.474 6.9271 18.6466Z" fill="#7B7B7B"/>
<path d="M20 7.5C20 9.98528 17.9853 12 15.5 12C13.0147 12 11 9.98528 11 7.5C11 5.01472 13.0147 3 15.5 3C17.9853 3 20 5.01472 20 7.5Z" fill="#7B7B7B"/>
</svg>
