<svg width="30" height="30" viewBox="-7 -3 35 35" fill="none" xmlns="http://www.w3.org/2000/svg">
<path fill-rule="evenodd" clip-rule="evenodd" d="M0.478271 9.13623C0.478271 6.92709 2.26913 5.13623 4.47827 5.13623H16.875C19.0841 5.13623 20.875 6.92709 20.875 9.13623V23.0004C20.875 25.2095 19.0842 27.0004 16.875 27.0004H4.47827C2.26913 27.0004 0.478271 25.2095 0.478271 23.0004V9.13623ZM4.2935 12.1793C4.2935 11.1257 5.14757 10.2717 6.20111 10.2717H15.1522C16.2057 10.2717 17.0598 11.1257 17.0598 12.1793C17.0598 13.2328 16.2057 14.0869 15.1522 14.0869H6.20111C5.14757 14.0869 4.2935 13.2328 4.2935 12.1793ZM6.20111 18.049C5.14757 18.049 4.2935 18.9031 4.2935 19.9566C4.2935 21.0102 5.14757 21.8642 6.20111 21.8642H15.1522C16.2057 21.8642 17.0598 21.0102 17.0598 19.9566C17.0598 18.9031 16.2057 18.049 15.1522 18.049H6.20111Z" fill="#7B7B7B"/>
<rect x="4.73389" y="1.90771" width="11.8859" height="2.20109" rx="1.10054" fill="#7B7B7B"/>
<rect x="7.66846" width="5.86957" height="3.08152" rx="1.54076" fill="#7B7B7B"/>
</svg>
