<svg width="15" height="21" viewBox="-5 -3 25 25" fill="none" xmlns="http://www.w3.org/2000/svg">
<path fill-rule="evenodd" clip-rule="evenodd" d="M3.46915 21H11.5308C12.5552 21 13.414 20.226 13.5201 19.2072L14.7701 7.20721C14.893 6.02706 13.9674 5 12.7808 5H2.21915C1.03262 5 0.106986 6.02706 0.229918 7.20721L1.47992 19.2072C1.58605 20.226 2.44481 21 3.46915 21ZM8.5 9C8.5 8.44772 8.05228 8 7.5 8C6.94772 8 6.5 8.44772 6.5 9V17C6.5 17.5523 6.94772 18 7.5 18C8.05228 18 8.5 17.5523 8.5 17V9ZM11.0624 8.00195C11.6136 8.0364 12.0325 8.51117 11.9981 9.06238L11.4981 17.0624C11.4636 17.6136 10.9888 18.0325 10.4376 17.9981C9.88641 17.9636 9.4675 17.4888 9.50195 16.9376L10.0019 8.93762C10.0364 8.38641 10.5112 7.9675 11.0624 8.00195ZM3.50195 17.0624C3.5364 17.6136 4.01117 18.0325 4.56238 17.9981C5.11359 17.9636 5.5325 17.4888 5.49805 16.9376L4.99805 8.93762C4.9636 8.38641 4.48883 7.9675 3.93762 8.00195C3.38641 8.0364 2.9675 8.51117 3.00195 9.06238L3.50195 17.0624Z" fill="#7B7B7B"/>
<path d="M0 2C0 1.44772 0.447715 1 1 1H14C14.5523 1 15 1.44772 15 2V3C15 3.55228 14.5523 4 14 4H1C0.447715 4 0 3.55228 0 3V2Z" fill="#7B7B7B"/>
<path d="M5 1C5 0.447715 5.44772 0 6 0H9C9.55228 0 10 0.447715 10 1V3C10 3.55228 9.55228 4 9 4H6C5.44772 4 5 3.55228 5 3V1Z" fill="#7B7B7B"/>
</svg>
