<svg width="504" height="504" viewBox="53 15 400 400" fill="none" xmlns="http://www.w3.org/2000/svg">
<path d="M208.699 75C227.944 41.6667 276.056 41.6667 295.301 75L426.937 303C446.182 336.333 422.126 378 383.636 378H120.364C81.8742 378 57.8179 336.333 77.0629 303L208.699 75Z" fill="#FFD151"/>
<path d="M230.976 145.517C230.797 138.803 233.93 135.446 240.375 135.446H261.859C268.305 135.446 271.438 138.803 271.259 145.517L267.633 262.875C267.454 268.694 264.545 271.604 258.905 271.604H243.329C237.689 271.604 234.78 268.694 234.601 262.875L230.976 145.517ZM240.912 328C234.646 328 231.513 324.643 231.513 317.929V299.936C231.513 293.222 234.646 289.865 240.912 289.865H261.322C267.589 289.865 270.722 293.222 270.722 299.936V317.929C270.722 324.643 267.589 328 261.322 328H240.912Z" fill="white"/>
</svg>
