<?xml version="1.0" encoding="UTF-8" standalone="no"?>
<!DOCTYPE svg PUBLIC "-//W3C//DTD SVG 1.1//EN" "http://www.w3.org/Graphics/SVG/1.1/DTD/svg11.dtd">
<svg width="100%" height="100%" viewBox="0 0 4988 5000" version="1.1" xmlns="http://www.w3.org/2000/svg" xmlns:xlink="http://www.w3.org/1999/xlink" xml:space="preserve" xmlns:serif="http://www.serif.com/" style="fill-rule:evenodd;clip-rule:evenodd;stroke-linejoin:round;stroke-miterlimit:2;">
    <g transform="matrix(2.00297,0,0,2.00297,0,9.5052)">
        <path d="M1245.2,1.6C557.6,1.6 0,559 0,1246.7C0,1796.9 356.8,2263.6 851.5,2428.2C913.7,2439.7 936.6,2401.2 936.6,2368.3C936.6,2338.6 935.4,2240.5 934.9,2136.5C588.5,2211.8 515.4,1989.6 515.4,1989.6C458.8,1845.7 377.1,1807.4 377.1,1807.4C264.1,1730.1 385.6,1731.7 385.6,1731.7C510.6,1740.5 576.5,1860 576.5,1860C687.6,2050.4 867.8,1995.3 938.8,1963.5C950,1883 982.2,1828.1 1017.9,1797C741.3,1765.5 450.6,1658.7 450.6,1181.6C450.6,1045.7 499.2,934.6 578.9,847.4C566,816.1 523.4,689.5 591,518C591,518 695.6,484.5 933.5,645.6C1032.8,618 1139.3,604.2 1245.2,603.7C1351,604.2 1457.6,618 1557.1,645.6C1794.8,484.5 1899.2,518 1899.2,518C1967,689.5 1924.3,816.2 1911.4,847.5C1991.2,934.7 2039.5,1045.8 2039.5,1181.7C2039.5,1659.9 1748.2,1765.3 1470.9,1796.1C1515.6,1834.7 1555.4,1910.5 1555.4,2026.7C1555.4,2193.3 1554,2327.4 1554,2368.4C1554,2401.5 1576.4,2440.4 1639.5,2428.1C2134,2263.3 2490.3,1796.7 2490.3,1246.7C2490.3,559 1932.8,1.6 1245.2,1.6" style="fill:rgb(92,107,192);fill-rule:nonzero;"/>
    </g>
</svg>
