<svg width="4632" height="4632" viewBox="0 0 4632 4632" fill="none" xmlns="http://www.w3.org/2000/svg">
<g filter="url(#filter0_d_368_66)">
<path d="M3853.33 781.585C3655.59 583.848 3376.43 552.83 3046.86 552.83H1581.27C1255.59 552.83 976.426 583.848 778.689 781.585C580.944 979.321 551.87 1256.55 551.87 1580.3V3045.89C551.87 3377.39 580.944 3652.68 778.689 3850.42C976.426 4048.15 1255.59 4079.17 1587.09 4079.17H3046.86C3376.43 4079.17 3655.59 4048.15 3853.33 3850.42C4051.07 3652.68 4080.13 3377.39 4080.13 3045.89V1586.11C4080.13 1254.61 4051.07 977.386 3853.33 781.585Z" fill="url(#paint0_radial_368_66)"/>
</g>
<circle cx="2306.64" cy="2316" r="842" fill="url(#paint1_radial_368_66)"/>
<path d="M2267.76 1956.55C845.517 2359.43 417.351 3019.28 1667.81 2863.35C1620.57 2811.61 1570.28 2727.31 1543.81 2673.35C746.686 2786.47 1605.64 2349.77 2321.82 2133.34C3037.99 1916.9 3825.12 1849.63 3136.81 2173.85C3145.31 2221.85 3154.02 2302.76 3145.31 2392.34C4194.1 1856.23 3690.01 1553.67 2267.76 1956.55Z" fill="url(#paint2_linear_368_66)" fill-opacity="0.7"/>
<defs>
<filter id="filter0_d_368_66" x="549.47" y="552.83" width="3533.06" height="3568.74" filterUnits="userSpaceOnUse" color-interpolation-filters="sRGB">
<feFlood flood-opacity="0" result="BackgroundImageFix"/>
<feColorMatrix in="SourceAlpha" type="matrix" values="0 0 0 0 0 0 0 0 0 0 0 0 0 0 0 0 0 0 127 0" result="hardAlpha"/>
<feOffset dy="40"/>
<feGaussianBlur stdDeviation="1.2"/>
<feComposite in2="hardAlpha" operator="out"/>
<feColorMatrix type="matrix" values="0 0 0 0 0 0 0 0 0 0 0 0 0 0 0 0 0 0 0.25 0"/>
<feBlend mode="normal" in2="BackgroundImageFix" result="effect1_dropShadow_368_66"/>
<feBlend mode="normal" in="SourceGraphic" in2="effect1_dropShadow_368_66" result="shape"/>
</filter>
<radialGradient id="paint0_radial_368_66" cx="0" cy="0" r="1" gradientUnits="userSpaceOnUse" gradientTransform="translate(2316 2316) rotate(90) scale(2513 2514.37)">
<stop offset="0.0459576" stop-color="#372B58"/>
<stop offset="1" stop-color="#060016"/>
</radialGradient>
<radialGradient id="paint1_radial_368_66" cx="0" cy="0" r="1" gradientUnits="userSpaceOnUse" gradientTransform="translate(2615.81 2642.85) rotate(-124.634) scale(1194.71)">
<stop stop-color="#6457F2"/>
<stop offset="0.42" stop-color="#584BEB"/>
<stop offset="0.84" stop-color="#322A85"/>
</radialGradient>
<linearGradient id="paint2_linear_368_66" x1="2170.31" y1="1950.85" x2="2315.81" y2="2642.35" gradientUnits="userSpaceOnUse">
<stop stop-color="#6B63C9"/>
<stop offset="1" stop-color="#1D1A3D"/>
</linearGradient>
</defs>
</svg>
