<?xml version="1.0" encoding="UTF-8" standalone="no"?>
<!DOCTYPE svg PUBLIC "-//W3C//DTD SVG 1.1//EN" "http://www.w3.org/Graphics/SVG/1.1/DTD/svg11.dtd">
<svg width="100%" height="100%" viewBox="0 0 1080 1080" version="1.1" xmlns="http://www.w3.org/2000/svg" xmlns:xlink="http://www.w3.org/1999/xlink" xml:space="preserve" xmlns:serif="http://www.serif.com/" style="fill-rule:evenodd;clip-rule:evenodd;stroke-linejoin:round;stroke-miterlimit:2;">
    <g transform="matrix(0.152699,0.152699,-4.80388,4.80388,3010.31,-2577.48)">
        <path d="M891.442,545.342L891.442,616.689C891.442,620.475 794.728,623.549 675.605,623.549C556.482,623.549 459.769,620.475 459.769,616.689L459.769,545.342C459.769,541.555 556.482,538.481 675.605,538.481C794.728,538.481 891.442,541.555 891.442,545.342Z" style="fill:rgb(238,242,255);"/>
    </g>
    <g transform="matrix(0.152699,0.152699,-3.01252,3.01252,2270.75,-1610.4)">
        <path d="M891.442,549.421L891.442,612.609C891.442,618.647 794.728,623.549 675.605,623.549C556.482,623.549 459.769,618.647 459.769,612.609L459.769,549.421C459.769,543.383 556.482,538.481 675.605,538.481C794.728,538.481 891.442,543.383 891.442,549.421Z" style="fill:rgb(238,242,255);"/>
    </g>
    <g transform="matrix(0.152699,0.152699,-3.49359,3.49359,2226.93,-1566.58)">
        <path d="M891.442,547.915L891.442,614.116C891.442,619.322 794.728,623.549 675.605,623.549C556.482,623.549 459.769,619.322 459.769,614.116L459.769,547.915C459.769,542.708 556.482,538.481 675.605,538.481C794.728,538.481 891.442,542.708 891.442,547.915Z" style="fill:rgb(238,242,255);"/>
    </g>
    <g transform="matrix(0.152699,0.152699,-4.80388,4.80388,3327.3,-2431.54)">
        <path d="M891.442,545.342L891.442,616.689C891.442,620.475 794.728,623.549 675.605,623.549C556.482,623.549 459.769,620.475 459.769,616.689L459.769,545.342C459.769,541.555 556.482,538.481 675.605,538.481C794.728,538.481 891.442,541.555 891.442,545.342Z" style="fill:rgb(238,242,255);"/>
    </g>
    <g transform="matrix(0.152699,0.152699,-2.74549,2.74549,1776.16,-880.397)">
        <path d="M891.442,550.485L891.442,611.545C891.442,618.17 794.728,623.549 675.605,623.549C556.482,623.549 459.769,618.17 459.769,611.545L459.769,550.485C459.769,543.86 556.482,538.481 675.605,538.481C794.728,538.481 891.442,543.86 891.442,550.485Z" style="fill:rgb(238,242,255);"/>
    </g>
    <g transform="matrix(0.152699,0.152699,-3.01252,3.01252,2549.2,-1419.48)">
        <path d="M891.442,549.421L891.442,612.609C891.442,618.647 794.728,623.549 675.605,623.549C556.482,623.549 459.769,618.647 459.769,612.609L459.769,549.421C459.769,543.383 556.482,538.481 675.605,538.481C794.728,538.481 891.442,543.383 891.442,549.421Z" style="fill:rgb(238,242,255);"/>
    </g>
    <g transform="matrix(0.152699,0.152699,-3.49359,3.49359,2505.38,-1375.66)">
        <path d="M891.442,547.915L891.442,614.116C891.442,619.322 794.728,623.549 675.605,623.549C556.482,623.549 459.769,619.322 459.769,614.116L459.769,547.915C459.769,542.708 556.482,538.481 675.605,538.481C794.728,538.481 891.442,542.708 891.442,547.915Z" style="fill:rgb(238,242,255);"/>
    </g>
</svg>
