<?xml version="1.0" encoding="UTF-8" standalone="no"?>
<!DOCTYPE svg PUBLIC "-//W3C//DTD SVG 1.1//EN" "http://www.w3.org/Graphics/SVG/1.1/DTD/svg11.dtd">
<svg width="100%" height="100%" viewBox="0 0 2000 2000" version="1.1" xmlns="http://www.w3.org/2000/svg" xmlns:xlink="http://www.w3.org/1999/xlink" xml:space="preserve" xmlns:serif="http://www.serif.com/" style="fill-rule:evenodd;clip-rule:evenodd;stroke-linejoin:round;stroke-miterlimit:2;">
    <g transform="matrix(0.603445,0,0,0.699502,-77.3243,-57.3292)">
        <g transform="matrix(-1.23363e-17,-1.80873,2.01081,-1.46909e-15,1319.63,2984.08)">
            <path d="M1282.61,446.361C1282.61,509.753 1233.25,561.22 1172.45,561.22L455.734,561.22C394.937,561.22 345.578,509.753 345.578,446.361C345.578,382.969 394.937,331.503 455.734,331.503L1172.45,331.503C1233.25,331.503 1282.61,382.969 1282.61,446.361Z" style="fill:rgb(68,111,231);"/>
        </g>
        <g transform="matrix(1.16535,-1.74126,1.74142,0.867341,926.716,2545.61)">
            <path d="M1282.61,446.361C1282.61,509.753 1238.21,561.22 1183.52,561.22L444.672,561.22C389.98,561.22 345.578,509.753 345.578,446.361C345.578,382.969 389.98,331.503 444.672,331.503L1183.52,331.503C1238.21,331.503 1282.61,382.969 1282.61,446.361Z" style="fill:rgb(68,111,231);"/>
        </g>
        <g transform="matrix(1.17311,1.75287,-1.74142,0.867341,2471.36,-298.943)">
            <path d="M1282.61,446.361C1282.61,509.753 1238.5,561.22 1184.17,561.22L444.016,561.22C389.686,561.22 345.578,509.753 345.578,446.361C345.578,382.969 389.686,331.503 444.016,331.503L1184.17,331.503C1238.5,331.503 1282.61,382.969 1282.61,446.361Z" style="fill:rgb(96,138,255);"/>
        </g>
        <g transform="matrix(-1.30896e-17,-1.79812,2.01081,-1.45985e-15,-415.715,2981.45)">
            <path d="M1282.61,446.361C1282.61,509.753 1232.96,561.22 1171.8,561.22L456.384,561.22C395.228,561.22 345.578,509.753 345.578,446.361C345.578,382.969 395.228,331.503 456.384,331.503L1171.8,331.503C1232.96,331.503 1282.61,382.969 1282.61,446.361Z" style="fill:rgb(68,111,231);"/>
        </g>
        <g transform="matrix(-1.42003e-17,-1.78247,2.01081,-1.44622e-15,449.266,2951.83)">
            <path d="M1282.61,446.361C1282.61,509.753 1232.52,561.22 1170.83,561.22L457.357,561.22C395.664,561.22 345.578,509.753 345.578,446.361C345.578,382.969 395.664,331.503 457.357,331.503L1170.83,331.503C1232.52,331.503 1282.61,382.969 1282.61,446.361Z" style="fill:rgb(68,111,231);"/>
        </g>
        <g transform="matrix(1.17309,1.75283,-1.74142,0.867341,738.266,-300.579)">
            <path d="M1282.61,446.361C1282.61,509.753 1238.5,561.22 1184.17,561.22L444.018,561.22C389.687,561.22 345.578,509.753 345.578,446.361C345.578,382.969 389.687,331.503 444.018,331.503L1184.17,331.503C1238.5,331.503 1282.61,382.969 1282.61,446.361Z" style="fill:rgb(96,138,255);"/>
        </g>
    </g>
    <g transform="matrix(0.708557,1.22726,-1.05085,0.606707,892.435,-270.766)">
        <path d="M1282.61,446.361C1282.61,509.753 1238.54,561.22 1184.26,561.22L443.926,561.22C389.646,561.22 345.578,509.753 345.578,446.361C345.578,382.969 389.646,331.503 443.926,331.503L1184.26,331.503C1238.54,331.503 1282.61,382.969 1282.61,446.361Z" style="fill:rgb(96,138,255);"/>
    </g>
</svg>
